<svg xmlns="http://www.w3.org/2000/svg" xmlns:xlink="http://www.w3.org/1999/xlink" contentStyleType="text/css" height="470px" preserveAspectRatio="none" style="width:1147px;height:470px;background:#FFFFFF;" version="1.1" viewBox="0 0 1147 470" width="1147px" zoomAndPan="magnify"><defs/><g><path d="M580.5,87 L875.5,87 A12.5,12.5 0 0 1 888,99.5 L888,113.4883 L568,113.4883 L568,99.5 A12.5,12.5 0 0 1 580.5,87 " fill="#F1F1F1" style="stroke:#F1F1F1;stroke-width:1.0;"/><rect fill="none" height="377.3494" rx="12.5" ry="12.5" style="stroke:#181818;stroke-width:0.5;" width="320" x="568" y="87"/><line style="stroke:#181818;stroke-width:0.5;" x1="568" x2="888" y1="113.4883" y2="113.4883"/><text fill="#000000" font-family="sans-serif" font-size="14" lengthAdjust="spacing" textLength="34" x="711" y="105.5352">Loop</text><ellipse cx="666" cy="134.4883" fill="#222222" rx="10" ry="10" style="stroke:#222222;stroke-width:1.0;"/><g id="Loop.ChatCompletion"><rect fill="#F1F1F1" height="50.6211" rx="12.5" ry="12.5" style="stroke:#181818;stroke-width:0.5;" width="165" x="583.5" y="181.4883"/><line style="stroke:#181818;stroke-width:0.5;" x1="583.5" x2="748.5" y1="207.9766" y2="207.9766"/><text fill="#000000" font-family="sans-serif" font-size="14" lengthAdjust="spacing" textLength="112" x="610" y="200.0234">ChatCompletion</text><text fill="#000000" font-family="sans-serif" font-size="12" lengthAdjust="spacing" textLength="145" x="588.5" y="224.5781">invoke(generateGreeting)</text></g><g id="Loop.Prompt"><rect fill="#F1F1F1" height="50.6211" rx="12.5" ry="12.5" style="stroke:#181818;stroke-width:0.5;" width="172" x="580" y="300.1083"/><line style="stroke:#181818;stroke-width:0.5;" x1="580" x2="752" y1="326.5966" y2="326.5966"/><text fill="#000000" font-family="sans-serif" font-size="14" lengthAdjust="spacing" textLength="50" x="641" y="318.6434">Prompt</text><text fill="#000000" font-family="sans-serif" font-size="12" font-weight="bold" lengthAdjust="spacing" textLength="35" x="585" y="343.1981">entry:</text><text fill="#000000" font-family="sans-serif" font-size="12" lengthAdjust="spacing" textLength="113" x="624" y="343.1981">speak(lastMessage)</text></g><g id="Loop.Ask"><rect fill="#F1F1F1" height="50.6211" rx="12.5" ry="12.5" style="stroke:#181818;stroke-width:0.5;" width="89" x="621.5" y="403.7283"/><line style="stroke:#181818;stroke-width:0.5;" x1="621.5" x2="710.5" y1="430.2166" y2="430.2166"/><text fill="#000000" font-family="sans-serif" font-size="14" lengthAdjust="spacing" textLength="25" x="653.5" y="422.2634">Ask</text><text fill="#000000" font-family="sans-serif" font-size="12" font-weight="bold" lengthAdjust="spacing" textLength="35" x="626.5" y="446.8181">entry:</text><text fill="#000000" font-family="sans-serif" font-size="12" lengthAdjust="spacing" textLength="30" x="665.5" y="446.8181">listen</text></g><!--link *start*Loop to ChatCompletion--><g id="link_*start*Loop_ChatCompletion"><path d="M666,144.9683 C666,154.1883 666,162.5883 666,175.0683 " fill="none" id="*start*Loop-to-ChatCompletion" style="stroke:#181818;stroke-width:1.0;"/><polygon fill="#181818" points="666,181.0683,670,172.0683,666,176.0683,662,172.0683,666,181.0683" style="stroke:#181818;stroke-width:1.0;"/></g><!--link ChatCompletion to Prompt--><g id="link_ChatCompletion_Prompt"><path d="M666,232.5283 C666,252.3183 666,273.9383 666,293.7183 " fill="none" id="ChatCompletion-to-Prompt" style="stroke:#181818;stroke-width:1.0;"/><polygon fill="#181818" points="666,299.7183,670,290.7183,666,294.7183,662,290.7183,666,299.7183" style="stroke:#181818;stroke-width:1.0;"/><text fill="#000000" font-family="sans-serif" font-size="13" lengthAdjust="spacing" textLength="49" x="748" y="263.6766">onDone</text><text fill="#000000" font-family="sans-serif" font-size="13" lengthAdjust="spacing" textLength="207" x="671" y="278.9872">\append(event.output,messages)</text></g><!--link Prompt to Ask--><g id="link_Prompt_Ask"><path d="M666,351.0183 C666,366.8783 666,381.4283 666,397.3083 " fill="none" id="Prompt-to-Ask" style="stroke:#181818;stroke-width:1.0;"/><polygon fill="#181818" points="666,403.3083,670,394.3083,666,398.3083,662,394.3083,666,403.3083" style="stroke:#181818;stroke-width:1.0;"/><text fill="#000000" font-family="sans-serif" font-size="13" lengthAdjust="spacing" textLength="111" x="667" y="382.2966">SPEAK_COMPLETE</text></g><ellipse cx="167" cy="16" fill="#222222" rx="10" ry="10" style="stroke:#222222;stroke-width:1.0;"/><path d="M19.5,87 L314.5,87 A12.5,12.5 0 0 1 327,99.5 L327,113.4883 L7,113.4883 L7,99.5 A12.5,12.5 0 0 1 19.5,87 " fill="#F1F1F1" style="stroke:#F1F1F1;stroke-width:1.0;"/><rect fill="none" height="377.3494" rx="12.5" ry="12.5" style="stroke:#181818;stroke-width:0.5;" width="320" x="7" y="87"/><line style="stroke:#181818;stroke-width:0.5;" x1="7" x2="327" y1="113.4883" y2="113.4883"/><text fill="#000000" font-family="sans-serif" font-size="14" lengthAdjust="spacing" textLength="59" x="137.5" y="105.5352">Greeting</text><ellipse cx="105" cy="134.4883" fill="#222222" rx="10" ry="10" style="stroke:#222222;stroke-width:1.0;"/><g id="Greeting.GenerateGreeting"><rect fill="#F1F1F1" height="50.6211" rx="12.5" ry="12.5" style="stroke:#181818;stroke-width:0.5;" width="154" x="28" y="181.4883"/><line style="stroke:#181818;stroke-width:0.5;" x1="28" x2="182" y1="207.9766" y2="207.9766"/><text fill="#000000" font-family="sans-serif" font-size="14" lengthAdjust="spacing" textLength="121" x="44.5" y="200.0234">GenerateGreeting</text><text fill="#000000" font-family="sans-serif" font-size="12" lengthAdjust="spacing" textLength="134" x="33" y="224.5781">invoke(chatCompletion)</text></g><g id="Greeting.p"><rect fill="#F1F1F1" height="50.6211" rx="12.5" ry="12.5" style="stroke:#181818;stroke-width:0.5;" width="172" x="19" y="300.1083"/><line style="stroke:#181818;stroke-width:0.5;" x1="19" x2="191" y1="326.5966" y2="326.5966"/><text fill="#000000" font-family="sans-serif" font-size="14" lengthAdjust="spacing" textLength="50" x="80" y="318.6434">Prompt</text><text fill="#000000" font-family="sans-serif" font-size="12" font-weight="bold" lengthAdjust="spacing" textLength="35" x="24" y="343.1981">entry:</text><text fill="#000000" font-family="sans-serif" font-size="12" lengthAdjust="spacing" textLength="113" x="63" y="343.1981">speak(lastMessage)</text></g><g id="Greeting.a"><rect fill="#F1F1F1" height="50.6211" rx="12.5" ry="12.5" style="stroke:#181818;stroke-width:0.5;" width="89" x="60.5" y="403.7283"/><line style="stroke:#181818;stroke-width:0.5;" x1="60.5" x2="149.5" y1="430.2166" y2="430.2166"/><text fill="#000000" font-family="sans-serif" font-size="14" lengthAdjust="spacing" textLength="25" x="92.5" y="422.2634">Ask</text><text fill="#000000" font-family="sans-serif" font-size="12" font-weight="bold" lengthAdjust="spacing" textLength="35" x="65.5" y="446.8181">entry:</text><text fill="#000000" font-family="sans-serif" font-size="12" lengthAdjust="spacing" textLength="30" x="104.5" y="446.8181">listen</text></g><!--link *start*Greeting to GenerateGreeting--><g id="link_*start*Greeting_GenerateGreeting"><path d="M105,144.9683 C105,154.1883 105,162.5883 105,175.0683 " fill="none" id="*start*Greeting-to-GenerateGreeting" style="stroke:#181818;stroke-width:1.0;"/><polygon fill="#181818" points="105,181.0683,109,172.0683,105,176.0683,101,172.0683,105,181.0683" style="stroke:#181818;stroke-width:1.0;"/></g><!--link GenerateGreeting to p--><g id="link_GenerateGreeting_p"><path d="M105,232.5283 C105,252.3183 105,273.9383 105,293.7183 " fill="none" id="GenerateGreeting-to-p" style="stroke:#181818;stroke-width:1.0;"/><polygon fill="#181818" points="105,299.7183,109,290.7183,105,294.7183,101,290.7183,105,299.7183" style="stroke:#181818;stroke-width:1.0;"/><text fill="#000000" font-family="sans-serif" font-size="13" lengthAdjust="spacing" textLength="49" x="187" y="263.6766">onDone</text><text fill="#000000" font-family="sans-serif" font-size="13" lengthAdjust="spacing" textLength="207" x="110" y="278.9872">\append(event.output,messages)</text></g><!--link p to a--><g id="link_p_a"><path d="M105,351.0183 C105,366.8783 105,381.4283 105,397.3083 " fill="none" id="p-to-a" style="stroke:#181818;stroke-width:1.0;"/><polygon fill="#181818" points="105,403.3083,109,394.3083,105,398.3083,101,394.3083,105,403.3083" style="stroke:#181818;stroke-width:1.0;"/><text fill="#000000" font-family="sans-serif" font-size="13" lengthAdjust="spacing" textLength="111" x="106" y="382.2966">SPEAK_COMPLETE</text></g><!--link *start* to Greeting--><g id="link_*start*_Greeting"><path d="M167,26.48 C167,38.37 167,54.43 167,80.67 " fill="none" id="*start*-to-Greeting" style="stroke:#181818;stroke-width:1.0;"/><polygon fill="#181818" points="167,86.67,171,77.67,167,81.67,163,77.67,167,86.67" style="stroke:#181818;stroke-width:1.0;"/></g><!--link Greeting to Loop--><g id="link_Greeting_Loop"><path d="M327.38,275.68 C402.83,275.68 486.58,275.68 561.98,275.68 " fill="none" id="Greeting-to-Loop" style="stroke:#181818;stroke-width:1.0;"/><polygon fill="#181818" points="567.98,275.68,558.98,271.68,562.98,275.68,558.98,279.68,567.98,275.68" style="stroke:#181818;stroke-width:1.0;"/><text fill="#000000" font-family="sans-serif" font-size="13" lengthAdjust="spacing" textLength="81" x="407" y="254.2484">RECOGNISED</text><text fill="#000000" font-family="sans-serif" font-size="13" lengthAdjust="spacing" textLength="201" x="349" y="269.5589">\append(event.result,messages)</text></g><!--link Loop to Loop--><g id="link_Loop_Loop"><path d="M888.28,239.55 C909.17,245.76 923,257.8 923,275.68 C923,293.55 914.9213,303.8803 894.0313,310.0903 " fill="none" id="Loop-to-Loop" style="stroke:#181818;stroke-width:1.0;"/><polygon fill="#181818" points="888.28,311.8,898.0467,313.0696,893.0727,310.3753,895.7671,305.4013,888.28,311.8" style="stroke:#181818;stroke-width:1.0;"/><text fill="#000000" font-family="sans-serif" font-size="13" lengthAdjust="spacing" textLength="81" x="991" y="273.2484">RECOGNISED</text><text fill="#000000" font-family="sans-serif" font-size="13" lengthAdjust="spacing" textLength="201" x="933" y="288.5589">\append(event.result,messages)</text></g><!--SRC=[dP7TIiCm5CVlynI7NNN1-G2v68mk375pPVFEYWGzrD8k2JdfG8RlRfQwpgu3qSlyFqvEVY6lFCBI6CkU-3DC9bDOE4HVwe9Hz4v7E320BeCQNN2xB42R7cNExAmVWIAmPtL6LPHKa2wx0agzDnKch-_Afw5T1zdeyPLelDiAC7fkDEOQybnPY_ejmJrgVsiQRnj_iqCYLI0THuGqvy5p7u9p88kgIcf5VjLcOYIELGAscPpTlwJhLRQKZp8ugbUkI_Ae0TWdEoyqZV04R6IwNZpSRULyk9P3QkgVQtsZFJPxMDCUWM3qXOvKSS5bF8Z6SUrV_0dNgV8RipONRmb_UmLTL0Vm0hhuw7zX-m80]--></g></svg>